{
  "accessors": [
    {
      "bufferView": 2,
      "componentType": 5126,
      "count": 65532,
      "max": [
        38.995059967041016,
        127.78727722167969,
        45.27809143066406
      ],
      "min": [
        0.028780000284314156,
        1.4674949645996094,
        5.524311065673828
      ],
      "type": "VEC3"
    },
    {
      "bufferView": 2,
      "byteOffset": 786384,
      "componentType": 5126,
      "count": 65532,
      "max": [
        1.0,
        0.9999721050262451,
        0.9999980926513672
      ],
      "min": [
        -1.0,
        -1.0,
        -0.9999971985816956
      ],
      "type": "VEC3"
    },
    {
      "bufferView": 1,
      "componentType": 5126,
      "count": 65532,
      "max": [
        1.0,
        1.0
      ],
      "min": [
        0.7837299704551697,
        0.2718600034713745
      ],
      "type": "VEC2"
    },
    {
      "bufferView": 0,
      "componentType": 5125,
      "count": 380811,
      "type": "SCALAR"
    },
    {
      "bufferView": 2,
      "byteOffset": 1572768,
      "componentType": 5126,
      "count": 65532,
      "max": [
        40.12811279296875,
        129.918701171875,
        47.15642166137695
      ],
      "min": [
        0.0,
        0.3177410066127777,
        1.0075889825820923
      ],
      "type": "VEC3"
    },
    {
      "bufferView": 2,
      "byteOffset": 2359152,
      "componentType": 5126,
      "count": 65532,
      "max": [
        0.9999307990074158,
        1.0,
        0.999958336353302
      ],
      "min": [
        -1.0,
        -0.999841570854187,
        -0.9999942183494568
      ],
      "type": "VEC3"
    },
    {
      "bufferView": 1,
      "byteOffset": 524256,
      "componentType": 5126,
      "count": 65532,
      "max": [
        0.9940999746322632,
        0.98580002784729
      ],
      "min": [
        0.0019600000232458115,
        0.016179999336600304
      ],
      "type": "VEC2"
    },
    {
      "bufferView": 0,
      "byteOffset": 1523244,
      "componentType": 5125,
      "count": 294012,
      "type": "SCALAR"
    },
    {
      "bufferView": 2,
      "byteOffset": 3145536,
      "componentType": 5126,
      "count": 65532,
      "max": [
        40.885597229003906,
        129.91696166992188,
        46.68998336791992
      ],
      "min": [
        3.308583974838257,
        2.0261149406433105,
        0.01142099965363741
      ],
      "type": "VEC3"
    },
    {
      "bufferView": 2,
      "byteOffset": 3931920,
      "componentType": 5126,
      "count": 65532,
      "max": [
        0.9999952912330627,
        0.999954879283905,
        0.9999954104423523
      ],
      "min": [
        -0.9999958872795105,
        -0.9994215369224548,
        -0.9999884963035583
      ],
      "type": "VEC3"
    },
    {
      "bufferView": 1,
      "byteOffset": 1048512,
      "componentType": 5126,
      "count": 65532,
      "max": [
        0.9769999980926514,
        0.9963499903678894
      ],
      "min": [
        0.04513999819755554,
        0.04554999992251396
      ],
      "type": "VEC2"
    },
    {
      "bufferView": 0,
      "byteOffset": 2699292,
      "componentType": 5125,
      "count": 297300,
      "type": "SCALAR"
    },
    {
      "bufferView": 2,
      "byteOffset": 4718304,
      "componentType": 5126,
      "count": 65532,
      "max": [
        41.17634582519531,
        130.0,
        47.027687072753906
      ],
      "min": [
        2.467672109603882,
        3.999999989900971e-06,
        3.739058017730713
      ],
      "type": "VEC3"
    },
    {
      "bufferView": 2,
      "byteOffset": 5504688,
      "componentType": 5126,
      "count": 65532,
      "max": [
        0.9999984502792358,
        0.9999217987060547,
        0.9999867081642151
      ],
      "min": [
        -0.9999939799308777,
        -0.9998407959938049,
        -0.9999974966049194
      ],
      "type": "VEC3"
    },
    {
      "bufferView": 1,
      "byteOffset": 1572768,
      "componentType": 5126,
      "count": 65532,
      "max": [
        0.9752399921417236,
        0.9921200275421143
      ],
      "min": [
        0.02379000000655651,
        0.025270000100135803
      ],
      "type": "VEC2"
    },
    {
      "bufferView": 0,
      "byteOffset": 3888492,
      "componentType": 5125,
      "count": 306000,
      "type": "SCALAR"
    },
    {
      "bufferView": 2,
      "byteOffset": 6291072,
      "componentType": 5126,
      "count": 65532,
      "max": [
        40.895538330078125,
        130.0,
        47.56566619873047
      ],
      "min": [
        0.3231300115585327,
        1.152737021446228,
        1.6047899723052979
      ],
      "type": "VEC3"
    },
    {
      "bufferView": 2,
      "byteOffset": 7077456,
      "componentType": 5126,
      "count": 65532,
      "max": [
        0.9999864101409912,
        0.9998228549957275,
        0.9999973773956299
      ],
      "min": [
        -0.9999701380729675,
        -0.9999498724937439,
        -0.9999902248382568
      ],
      "type": "VEC3"
    },
    {
      "bufferView": 1,
      "byteOffset": 2097024,
      "componentType": 5126,
      "count": 65532,
      "max": [
        0.9830099940299988,
        0.9897699952125549
      ],
      "min": [
        0.028510000556707382,
        0.01221999991685152
      ],
      "type": "VEC2"
    },
    {
      "bufferView": 0,
      "byteOffset": 5112492,
      "componentType": 5125,
      "count": 304587,
      "type": "SCALAR"
    },
    {
      "bufferView": 2,
      "byteOffset": 7863840,
      "componentType": 5126,
      "count": 65532,
      "max": [
        40.68268585205078,
        129.7289581298828,
        47.446773529052734
      ],
      "min": [
        2.2309229373931885,
        0.38826000690460205,
        5.889701843261719
      ],
      "type": "VEC3"
    },
    {
      "bufferView": 2,
      "byteOffset": 8650224,
      "componentType": 5126,
      "count": 65532,
      "max": [
        0.9999977946281433,
        0.999947726726532,
        0.9999682903289795
      ],
      "min": [
        -0.999947190284729,
        -0.9999844431877136,
        -0.9999949932098389
      ],
      "type": "VEC3"
    },
    {
      "bufferView": 1,
      "byteOffset": 2621280,
      "componentType": 5126,
      "count": 65532,
      "max": [
        0.974049985408783,
        0.9980499744415283
      ],
      "min": [
        0.015990000218153,
        0.023080000653862953
      ],
      "type": "VEC2"
    },
    {
      "bufferView": 0,
      "byteOffset": 6330840,
      "componentType": 5125,
      "count": 308808,
      "type": "SCALAR"
    },
    {
      "bufferView": 2,
      "byteOffset": 9436608,
      "componentType": 5126,
      "count": 65532,
      "max": [
        41.053627014160156,
        130.0,
        47.52477264404297
      ],
      "min": [
        0.40490901470184326,
        0.5198900103569031,
        0.0
      ],
      "type": "VEC3"
    },
    {
      "bufferView": 2,
      "byteOffset": 10222992,
      "componentType": 5126,
      "count": 65532,
      "max": [
        0.9999986886978149,
        0.9999269247055054,
        0.9999986290931702
      ],
      "min": [
        -0.9999866485595703,
        -0.9997839331626892,
        -0.9999902248382568
      ],
      "type": "VEC3"
    },
    {
      "bufferView": 1,
      "byteOffset": 3145536,
      "componentType": 5126,
      "count": 65532,
      "max": [
        0.9923800230026245,
        0.9944599866867065
      ],
      "min": [
        0.014779999852180481,
        0.011509999632835388
      ],
      "type": "VEC2"
    },
    {
      "bufferView": 0,
      "byteOffset": 7566072,
      "componentType": 5125,
      "count": 297012,
      "type": "SCALAR"
    },
    {
      "bufferView": 2,
      "byteOffset": 11009376,
      "componentType": 5126,
      "count": 65533,
      "max": [
        41.05127716064453,
        129.7926483154297,
        47.51173782348633
      ],
      "min": [
        0.4730049967765808,
        0.011371999979019165,
        0.392071008682251
      ],
      "type": "VEC3"
    },
    {
      "bufferView": 2,
      "byteOffset": 11795772,
      "componentType": 5126,
      "count": 65533,
      "max": [
        0.9999924898147583,
        0.9999001026153564,
        0.9999991655349731
      ],
      "min": [
        -0.9999958872795105,
        -0.9999830722808838,
        -0.9999843835830688
      ],
      "type": "VEC3"
    },
    {
      "bufferView": 1,
      "byteOffset": 3669792,
      "componentType": 5126,
      "count": 65533,
      "max": [
        1.0,
        1.0
      ],
      "min": [
        0.004370000213384628,
        0.021460000425577164
      ],
      "type": "VEC2"
    },
    {
      "bufferView": 0,
      "byteOffset": 8754120,
      "componentType": 5125,
      "count": 272460,
      "type": "SCALAR"
    },
    {
      "bufferView": 2,
      "byteOffset": 12582168,
      "componentType": 5126,
      "count": 65532,
      "max": [
        41.101112365722656,
        130.0,
        47.54331588745117
      ],
      "min": [
        0.15446899831295013,
        0.5638579726219177,
        0.24426299333572388
      ],
      "type": "VEC3"
    },
    {
      "bufferView": 2,
      "byteOffset": 13368552,
      "componentType": 5126,
      "count": 65532,
      "max": [
        0.9999971389770508,
        0.9998989105224609,
        0.9999850988388062
      ],
      "min": [
        -0.9999622702598572,
        -0.9998407959938049,
        -0.9999942183494568
      ],
      "type": "VEC3"
    },
    {
      "bufferView": 1,
      "byteOffset": 4194056,
      "componentType": 5126,
      "count": 65532,
      "max": [
        0.9980499744415283,
        0.9925400018692017
      ],
      "min": [
        0.008589999750256538,
        0.014010000042617321
      ],
      "type": "VEC2"
    },
    {
      "bufferView": 0,
      "byteOffset": 9843960,
      "componentType": 5125,
      "count": 205221,
      "type": "SCALAR"
    },
    {
      "bufferView": 2,
      "byteOffset": 14154936,
      "componentType": 5126,
      "count": 37853,
      "max": [
        41.126441955566406,
        129.96075439453125,
        47.40771484375
      ],
      "min": [
        0.2893890142440796,
        0.18323500454425812,
        0.2716499865055084
      ],
      "type": "VEC3"
    },
    {
      "bufferView": 2,
      "byteOffset": 14609172,
      "componentType": 5126,
      "count": 37853,
      "max": [
        0.9999649524688721,
        0.9990875124931335,
        0.9999986290931702
      ],
      "min": [
        -0.9999374747276306,
        -0.9996302723884583,
        -0.9999957084655762
      ],
      "type": "VEC3"
    },
    {
      "bufferView": 1,
      "byteOffset": 4718312,
      "componentType": 5126,
      "count": 37853,
      "max": [
        1.0,
        1.0
      ],
      "min": [
        0.002570000011473894,
        0.012600000016391277
      ],
      "type": "VEC2"
    },
    {
      "bufferView": 0,
      "byteOffset": 10664844,
      "componentType": 5125,
      "count": 85290,
      "type": "SCALAR"
    }
  ],
  "asset": {
    "extras": {
      "author": "myminimate (https://sketchfab.com/myminimate)",
      "license": "CC-BY-4.0 (http://creativecommons.org/licenses/by/4.0/)",
      "source": "https://sketchfab.com/3d-models/shevani-bride-44e7e51f6244404ea63aa477211058af",
      "title": "Shevani Bride"
    },
    "generator": "Sketchfab-12.67.0",
    "version": "2.0"
  },
  "bufferViews": [
    {
      "buffer": 0,
      "byteLength": 11006004,
      "name": "floatBufferViews",
      "target": 34963
    },
    {
      "buffer": 0,
      "byteLength": 5021136,
      "byteOffset": 11006004,
      "byteStride": 8,
      "name": "floatBufferViews",
      "target": 34962
    },
    {
      "buffer": 0,
      "byteLength": 15063408,
      "byteOffset": 16027140,
      "byteStride": 12,
      "name": "floatBufferViews",
      "target": 34962
    }
  ],
  "buffers": [
    {
      "byteLength": 31090548,
      "uri": "scene.bin"
    }
  ],
  "extensionsUsed": [
    "KHR_materials_unlit"
  ],
  "images": [
    {
      "uri": "textures/material_0_baseColor.jpeg"
    }
  ],
  "materials": [
    {
      "doubleSided": true,
      "extensions": {
        "KHR_materials_unlit": {}
      },
      "name": "material_0",
      "pbrMetallicRoughness": {
        "baseColorTexture": {
          "index": 0
        },
        "metallicFactor": 0.0
      }
    }
  ],
  "meshes": [
    {
      "name": "Object_0",
      "primitives": [
        {
          "attributes": {
            "NORMAL": 1,
            "POSITION": 0,
            "TEXCOORD_0": 2
          },
          "indices": 3,
          "material": 0,
          "mode": 4
        }
      ]
    },
    {
      "name": "Object_1",
      "primitives": [
        {
          "attributes": {
            "NORMAL": 5,
            "POSITION": 4,
            "TEXCOORD_0": 6
          },
          "indices": 7,
          "material": 0,
          "mode": 4
        }
      ]
    },
    {
      "name": "Object_2",
      "primitives": [
        {
          "attributes": {
            "NORMAL": 9,
            "POSITION": 8,
            "TEXCOORD_0": 10
          },
          "indices": 11,
          "material": 0,
          "mode": 4
        }
      ]
    },
    {
      "name": "Object_3",
      "primitives": [
        {
          "attributes": {
            "NORMAL": 13,
            "POSITION": 12,
            "TEXCOORD_0": 14
          },
          "indices": 15,
          "material": 0,
          "mode": 4
        }
      ]
    },
    {
      "name": "Object_4",
      "primitives": [
        {
          "attributes": {
            "NORMAL": 17,
            "POSITION": 16,
            "TEXCOORD_0": 18
          },
          "indices": 19,
          "material": 0,
          "mode": 4
        }
      ]
    },
    {
      "name": "Object_5",
      "primitives": [
        {
          "attributes": {
            "NORMAL": 21,
            "POSITION": 20,
            "TEXCOORD_0": 22
          },
          "indices": 23,
          "material": 0,
          "mode": 4
        }
      ]
    },
    {
      "name": "Object_6",
      "primitives": [
        {
          "attributes": {
            "NORMAL": 25,
            "POSITION": 24,
            "TEXCOORD_0": 26
          },
          "indices": 27,
          "material": 0,
          "mode": 4
        }
      ]
    },
    {
      "name": "Object_7",
      "primitives": [
        {
          "attributes": {
            "NORMAL": 29,
            "POSITION": 28,
            "TEXCOORD_0": 30
          },
          "indices": 31,
          "material": 0,
          "mode": 4
        }
      ]
    },
    {
      "name": "Object_8",
      "primitives": [
        {
          "attributes": {
            "NORMAL": 33,
            "POSITION": 32,
            "TEXCOORD_0": 34
          },
          "indices": 35,
          "material": 0,
          "mode": 4
        }
      ]
    },
    {
      "name": "Object_9",
      "primitives": [
        {
          "attributes": {
            "NORMAL": 37,
            "POSITION": 36,
            "TEXCOORD_0": 38
          },
          "indices": 39,
          "material": 0,
          "mode": 4
        }
      ]
    }
  ],
  "nodes": [
    {
      "children": [
        1
      ],
      "matrix": [
        1.0,
        0.0,
        0.0,
        0.0,
        0.0,
        2.220446049250313e-16,
        -1.0,
        0.0,
        0.0,
        1.0,
        2.220446049250313e-16,
        0.0,
        0.0,
        0.0,
        0.0,
        1.0
      ],
      "name": "Sketchfab_model"
    },
    {
      "children": [
        2,
        3,
        4,
        5,
        6,
        7,
        8,
        9,
        10,
        11
      ],
      "matrix": [
        1.0,
        0.0,
        0.0,
        0.0,
        0.0,
        0.0,
        1.0,
        0.0,
        0.0,
        -1.0,
        0.0,
        0.0,
        0.0,
        0.0,
        0.0,
        1.0
      ],
      "name": "Shevani_Bride.wrl.cleaner.materialmerger.gles"
    },
    {
      "mesh": 0,
      "name": "Object_2"
    },
    {
      "mesh": 1,
      "name": "Object_3"
    },
    {
      "mesh": 2,
      "name": "Object_4"
    },
    {
      "mesh": 3,
      "name": "Object_5"
    },
    {
      "mesh": 4,
      "name": "Object_6"
    },
    {
      "mesh": 5,
      "name": "Object_7"
    },
    {
      "mesh": 6,
      "name": "Object_8"
    },
    {
      "mesh": 7,
      "name": "Object_9"
    },
    {
      "mesh": 8,
      "name": "Object_10"
    },
    {
      "mesh": 9,
      "name": "Object_11"
    }
  ],
  "samplers": [
    {
      "magFilter": 9729,
      "minFilter": 9987,
      "wrapS": 10497,
      "wrapT": 10497
    }
  ],
  "scene": 0,
  "scenes": [
    {
      "name": "Sketchfab_Scene",
      "nodes": [
        0
      ]
    }
  ],
  "textures": [
    {
      "sampler": 0,
      "source": 0
    }
  ]
}
